<?xml version="1.0" encoding="UTF-8"?>
<svg width="250px" height="250px" viewBox="0 0 250 250" version="1.1" xmlns="http://www.w3.org/2000/svg" xmlns:xlink="http://www.w3.org/1999/xlink">
    <title>w w w</title>
    <defs>
        <path d="M105.49999,240 C113.494338,240 121.161258,236.839295 126.814116,231.213203 C132.466974,225.587112 135.642716,217.956495 135.642716,210 L75.3572631,210 C75.3572631,226.568542 88.8526215,240 105.49999,240 Z M206.944394,169.823437 C197.845058,160.092187 180.819127,145.448437 180.819127,97.5 C180.819127,61.078125 155.160131,31.921875 120.561933,24.76875 L120.561933,15 C120.561933,6.71572875 113.814254,0 105.49057,0 C97.1668859,0 90.4192068,6.71572875 90.4192068,15 L90.4192068,24.76875 C55.8398478,31.921875 30.1808519,61.078125 30.1808519,97.5 C30.1808519,145.453125 13.1549212,160.092187 4.05558567,169.823437 C1.43276311,172.56626 -0.0206212825,176.213597 0.000221107644,180 C0.0522548118,187.6875 6.12318831,195 15.1189082,195 L195.881071,195 C204.88621,195 210.952434,187.6875 210.999769,180 C211.021092,176.213505 209.567637,172.565992 206.944394,169.823438 L206.944394,169.823437 Z M134.806913,146.971456 C131.864047,149.900388 127.092717,149.900388 124.14985,146.971456 L105.49999,128.409903 L86.8501291,146.971456 C83.9072624,149.900388 79.1359327,149.900388 76.193066,146.971456 L70.8645191,141.66817 C67.9216677,138.739223 67.9216677,133.990485 70.8645344,131.061553 L89.5143949,112.5 L70.8645344,93.938447 C67.9216677,91.0095148 67.9216677,86.2607775 70.8645191,83.33183 L76.193066,78.0285444 C79.1359327,75.0996122 83.9072624,75.0996122 86.8501291,78.0285444 L105.49999,96.5900974 L124.14985,78.0285444 C127.092717,75.0996122 131.864047,75.0996122 134.806913,78.0285444 L140.13546,83.33183 C143.078312,86.2607775 143.078312,91.0095148 140.135445,93.938447 L121.485584,112.5 L140.135445,131.061553 C143.078312,133.990485 143.078312,138.739223 140.13546,141.66817 L134.806913,146.971456 Z" id="path-1"></path>
        <filter x="-3.3%" y="-2.1%" width="106.6%" height="105.8%" filterUnits="objectBoundingBox" id="filter-2">
            <feOffset dx="0" dy="2" in="SourceAlpha" result="shadowOffsetOuter1"></feOffset>
            <feGaussianBlur stdDeviation="2" in="shadowOffsetOuter1" result="shadowBlurOuter1"></feGaussianBlur>
            <feColorMatrix values="0 0 0 0 0   0 0 0 0 0   0 0 0 0 0  0 0 0 0.5 0" type="matrix" in="shadowBlurOuter1"></feColorMatrix>
        </filter>
    </defs>
    <g id="w-w-w" stroke="none" stroke-width="1" fill="none" fill-rule="evenodd">
        <g id="xbell" transform="translate(19.000000, 5.000000)" fill-rule="nonzero">
            <g id="形状">
                <use fill="black" fill-opacity="1" filter="url(#filter-2)" xlink:href="#path-1"></use>
                <use fill="#4EA1ED" xlink:href="#path-1"></use>
            </g>
        </g>
    </g>
</svg>