<?xml version="1.0" encoding="UTF-8"?>
<svg width="250px" height="250px" viewBox="0 0 250 250" version="1.1" xmlns="http://www.w3.org/2000/svg" xmlns:xlink="http://www.w3.org/1999/xlink">
    <title>w w w</title>
    <defs>
        <path d="M87.5003707,200 C94.130783,200 100.489631,197.366079 105.17804,192.67767 C109.86645,187.98926 112.500371,181.630412 112.500371,175 L62.5003707,175 C62.5003707,188.807119 73.693252,200 87.5003707,200 Z M171.637089,141.519531 C164.090214,133.410156 149.969121,121.207031 149.969121,81.25 C149.969121,50.8984375 128.687871,26.6015625 99.9925582,20.640625 L99.9925582,12.5 C99.9925582,5.59644063 94.3961176,0 87.4925582,0 C80.5889989,0 74.9925582,5.59644063 74.9925582,12.5 L74.9925582,20.640625 C46.3128707,26.6015625 25.0316207,50.8984375 25.0316207,81.25 C25.0316207,121.210938 10.910527,133.410156 3.36365199,141.519531 C1.18831579,143.805217 -0.0171030336,146.844665 0.000183383912,150 C0.0433394868,156.40625 5.07849574,162.5 12.5394332,162.5 L162.461308,162.5 C169.930058,162.5 174.961308,156.40625 175.000567,150 C175.018252,146.844588 173.812775,143.804994 171.637089,141.519531 L171.637089,141.519531 Z M111.807166,122.476213 C109.36639,124.91699 105.409108,124.91699 102.968332,122.476213 L87.5003707,107.008252 L72.0324099,122.476213 C69.5916331,124.91699 65.634352,124.91699 63.1935751,122.476213 L58.7741578,118.056796 C56.3333809,115.616019 56.3333809,111.658738 58.7741578,109.217961 L74.2421186,93.75 L58.7741578,78.2820392 C56.3333809,75.8412623 56.3333809,71.8839812 58.7741578,69.4432044 L63.1935751,65.023787 C65.634352,62.5830102 69.5916331,62.5830102 72.0324099,65.023787 L87.5003707,80.4917479 L102.968332,65.023787 C105.409108,62.5830102 109.36639,62.5830102 111.807166,65.023787 L116.226584,69.4432044 C118.667361,71.8839812 118.667361,75.8412623 116.226584,78.2820392 L100.758623,93.75 L116.226584,109.217961 C118.667361,111.658738 118.667361,115.616019 116.226584,118.056796 L111.807166,122.476213 Z" id="path-1"></path>
        <filter x="-4.0%" y="-2.5%" width="108.0%" height="107.0%" filterUnits="objectBoundingBox" id="filter-2">
            <feOffset dx="0" dy="2" in="SourceAlpha" result="shadowOffsetOuter1"></feOffset>
            <feGaussianBlur stdDeviation="2" in="shadowOffsetOuter1" result="shadowBlurOuter1"></feGaussianBlur>
            <feColorMatrix values="0 0 0 0 0   0 0 0 0 0   0 0 0 0 0  0 0 0 0.5 0" type="matrix" in="shadowBlurOuter1"></feColorMatrix>
        </filter>
    </defs>
    <g id="w-w-w" stroke="none" stroke-width="1" fill="none" fill-rule="evenodd">
        <g id="xbell" transform="translate(37.000000, 25.000000)" fill-rule="nonzero">
            <g id="形状">
                <use fill="black" fill-opacity="1" filter="url(#filter-2)" xlink:href="#path-1"></use>
                <use fill="#4EA1ED" xlink:href="#path-1"></use>
            </g>
        </g>
    </g>
</svg>